<svg width="280" height="197" viewBox="0 0 280 197" fill="none" xmlns="http://www.w3.org/2000/svg">
<path d="M84.5 0L157.679 112.5H11.3209L84.5 0Z" fill="#FF7710"/>
<path d="M86 46.5C89.1077 46.5 91.9709 48.2838 94.0771 51.2676C96.1823 54.25 97.5 58.3966 97.5 63C97.5 67.6034 96.1823 71.75 94.0771 74.7324C91.9709 77.7162 89.1077 79.5 86 79.5C82.8923 79.5 80.0291 77.7162 77.9229 74.7324C75.8177 71.75 74.5 67.6034 74.5 63C74.5 58.3966 75.8177 54.25 77.9229 51.2676C80.0291 48.2838 82.8923 46.5 86 46.5Z" fill="white" stroke="black"/>
<path d="M119 46.5C122.108 46.5 124.971 48.2838 127.077 51.2676C129.182 54.25 130.5 58.3966 130.5 63C130.5 67.6034 129.182 71.75 127.077 74.7324C124.971 77.7162 122.108 79.5 119 79.5C115.892 79.5 113.029 77.7162 110.923 74.7324C108.818 71.75 107.5 67.6034 107.5 63C107.5 58.3966 108.818 54.25 110.923 51.2676C113.029 48.2838 115.892 46.5 119 46.5Z" fill="white" stroke="black"/>
<ellipse cx="91" cy="70" rx="5" ry="7" fill="black"/>
<ellipse cx="124" cy="70" rx="5" ry="7" fill="black"/>
<rect x="134" y="75.9297" width="34" height="4" transform="rotate(-35.8887 134 75.9297)" fill="black"/>
<rect x="30" y="118.93" width="34" height="4" transform="rotate(-35.8887 30 118.93)" fill="black"/>
<ellipse cx="167" cy="56" rx="8" ry="7" fill="#FF7710"/>
<ellipse cx="30" cy="122" rx="8" ry="7" fill="#FF7710"/>
<path d="M240 126L274.641 179.25H205.359L240 126Z" fill="#FFE4CF"/>
<path d="M223 140.5C224.727 140.5 226.34 141.491 227.541 143.192C228.741 144.893 229.5 147.269 229.5 149.917C229.5 152.564 228.741 154.94 227.541 156.641C226.34 158.342 224.727 159.333 223 159.333C221.273 159.333 219.66 158.342 218.459 156.641C217.259 154.94 216.5 152.564 216.5 149.917C216.5 147.269 217.259 144.893 218.459 143.192C219.66 141.491 221.273 140.5 223 140.5Z" fill="white" stroke="black"/>
<ellipse cx="220.083" cy="145.833" rx="2.91667" ry="4.08333" fill="black"/>
<path d="M240.5 142.5C242.365 142.5 244.103 143.57 245.395 145.4C246.685 147.229 247.5 149.782 247.5 152.625C247.5 155.468 246.685 158.021 245.395 159.85C244.103 161.68 242.365 162.75 240.5 162.75C238.635 162.75 236.897 161.68 235.605 159.85C234.315 158.021 233.5 155.468 233.5 152.625C233.5 149.782 234.315 147.229 235.605 145.4C236.897 143.57 238.635 142.5 240.5 142.5Z" fill="white" stroke="black"/>
<ellipse cx="237.375" cy="148.25" rx="3.125" ry="4.375" fill="black"/>
<path d="M151 26C150.735 26 150.48 26.1054 150.293 26.2929C150.105 26.4804 150 26.7348 150 27V33H144C143.735 33 143.48 33.1054 143.293 33.2929C143.105 33.4804 143 33.7348 143 34C143 34.2652 143.105 34.5196 143.293 34.7071C143.48 34.8946 143.735 35 144 35H150V41C150 41.2652 150.105 41.5196 150.293 41.7071C150.48 41.8946 150.735 42 151 42C151.265 42 151.52 41.8946 151.707 41.7071C151.895 41.5196 152 41.2652 152 41V35H158C158.265 35 158.52 34.8946 158.707 34.7071C158.895 34.5196 159 34.2652 159 34C159 33.7348 158.895 33.4804 158.707 33.2929C158.52 33.1054 158.265 33 158 33H152V27C152 26.7348 151.895 26.4804 151.707 26.2929C151.52 26.1054 151.265 26 151 26Z" fill="black"/>
<path d="M193 41C193 41.5304 192.789 42.0391 192.414 42.4142C192.039 42.7893 191.53 43 191 43C190.47 43 189.961 42.7893 189.586 42.4142C189.211 42.0391 189 41.5304 189 41C189 40.4696 189.211 39.9609 189.586 39.5858C189.961 39.2107 190.47 39 191 39C191.53 39 192.039 39.2107 192.414 39.5858C192.789 39.9609 193 40.4696 193 41ZM182 46C182 45.7348 182.105 45.4804 182.293 45.2929C182.48 45.1054 182.735 45 183 45H199C199.265 45 199.52 45.1054 199.707 45.2929C199.895 45.4804 200 45.7348 200 46C200 46.2652 199.895 46.5196 199.707 46.7071C199.52 46.8946 199.265 47 199 47H183C182.735 47 182.48 46.8946 182.293 46.7071C182.105 46.5196 182 46.2652 182 46ZM191 53C191.53 53 192.039 52.7893 192.414 52.4142C192.789 52.0391 193 51.5304 193 51C193 50.4696 192.789 49.9609 192.414 49.5858C192.039 49.2107 191.53 49 191 49C190.47 49 189.961 49.2107 189.586 49.5858C189.211 49.9609 189 50.4696 189 51C189 51.5304 189.211 52.0391 189.586 52.4142C189.961 52.7893 190.47 53 191 53Z" fill="black"/>
</svg>
