<svg width="50" height="50" viewBox="0 0 50 50" fill="none" xmlns="http://www.w3.org/2000/svg">
<rect width="50" height="50" fill="white"/>
<path d="M43.0556 20.8368H29.1667V6.94792C29.1667 5.84285 28.7277 4.78304 27.9463 4.00164C27.1649 3.22024 26.1051 2.78125 25.0001 2.78125C23.895 2.78125 22.8352 3.22024 22.0538 4.00164C21.2724 4.78304 20.8334 5.84285 20.8334 6.94792V20.8368H6.9445C5.83943 20.8368 4.77962 21.2758 3.99822 22.0572C3.21682 22.8386 2.77783 23.8984 2.77783 25.0035C2.77783 26.1085 3.21682 27.1683 3.99822 27.9498C4.77962 28.7312 5.83943 29.1701 6.9445 29.1701H20.8334V43.059C20.8334 44.1641 21.2724 45.2239 22.0538 46.0053C22.8352 46.7867 23.895 47.2257 25.0001 47.2257C26.1051 47.2257 27.1649 46.7867 27.9463 46.0053C28.7277 45.2239 29.1667 44.1641 29.1667 43.059V29.1701H43.0556C44.1607 29.1701 45.2205 28.7312 46.0019 27.9498C46.7833 27.1683 47.2223 26.1085 47.2223 25.0035C47.2223 23.8984 46.7833 22.8386 46.0019 22.0572C45.2205 21.2758 44.1607 20.8368 43.0556 20.8368Z" fill="#FF7710"/>
</svg>
